<?xml version="1.0" encoding="utf-8"?>
<!-- Generator: Adobe Illustrator 24.0.2, SVG Export Plug-In . SVG Version: 6.00 Build 0)  -->
<svg version="1.1" id="Layer_1" xmlns="http://www.w3.org/2000/svg" xmlns:xlink="http://www.w3.org/1999/xlink" x="0px" y="0px"
	 viewBox="0 0 71 32" style="enable-background:new 0 0 71 32;" xml:space="preserve">
<style type="text/css">
	.st0{fill:#FFFFFF;}
</style>
<g>
	<g>
		<path class="st0" d="M26.3,15.6l1-0.1c0.1,0.4,0.2,0.7,0.3,1c0.2,0.3,0.4,0.5,0.8,0.6c0.4,0.2,0.8,0.2,1.2,0.2
			c0.4,0,0.8-0.1,1.1-0.2c0.3-0.1,0.5-0.3,0.7-0.5c0.2-0.2,0.2-0.4,0.2-0.7c0-0.3-0.1-0.5-0.2-0.6c-0.2-0.2-0.4-0.3-0.7-0.5
			c-0.2-0.1-0.7-0.2-1.4-0.4s-1.2-0.3-1.5-0.5c-0.4-0.2-0.7-0.4-0.9-0.8c-0.2-0.3-0.3-0.6-0.3-1c0-0.4,0.1-0.8,0.3-1.1
			c0.2-0.3,0.6-0.6,1-0.8c0.4-0.2,0.9-0.3,1.5-0.3c0.6,0,1.1,0.1,1.6,0.3c0.4,0.2,0.8,0.5,1,0.8c0.2,0.4,0.4,0.8,0.4,1.2l-1,0.1
			c-0.1-0.5-0.2-0.9-0.5-1.1c-0.3-0.3-0.8-0.4-1.4-0.4c-0.6,0-1.1,0.1-1.4,0.4c-0.3,0.2-0.4,0.5-0.4,0.9c0,0.3,0.1,0.5,0.3,0.7
			c0.2,0.2,0.7,0.4,1.6,0.6c0.9,0.2,1.5,0.4,1.8,0.5c0.5,0.2,0.8,0.5,1,0.8c0.2,0.3,0.3,0.7,0.3,1.1c0,0.4-0.1,0.8-0.4,1.2
			s-0.6,0.7-1,0.9c-0.5,0.2-1,0.3-1.5,0.3c-0.7,0-1.3-0.1-1.8-0.3c-0.5-0.2-0.9-0.5-1.1-1C26.5,16.6,26.4,16.2,26.3,15.6z"/>
		<path class="st0" d="M36.1,17.3l0.1,0.9c-0.3,0.1-0.5,0.1-0.8,0.1c-0.4,0-0.6-0.1-0.8-0.2c-0.2-0.1-0.3-0.3-0.4-0.4
			s-0.1-0.6-0.1-1.2v-3.3h-0.7v-0.8h0.7V11l1-0.6v2h1v0.8h-1v3.4c0,0.3,0,0.5,0.1,0.5c0,0.1,0.1,0.2,0.2,0.2
			c0.1,0.1,0.2,0.1,0.3,0.1C35.8,17.3,36,17.3,36.1,17.3z"/>
		<path class="st0" d="M37.1,18.2v-5.8H38v0.9c0.2-0.4,0.4-0.7,0.6-0.8c0.2-0.1,0.4-0.2,0.6-0.2c0.3,0,0.7,0.1,1,0.3l-0.3,0.9
			c-0.2-0.1-0.5-0.2-0.7-0.2c-0.2,0-0.4,0.1-0.6,0.2c-0.2,0.1-0.3,0.3-0.4,0.5c-0.1,0.3-0.2,0.7-0.2,1.1v3
			C38.1,18.2,37.1,18.2,37.1,18.2z"/>
		<path class="st0" d="M44.6,17.4c-0.4,0.3-0.7,0.5-1,0.6s-0.7,0.2-1.1,0.2c-0.6,0-1.1-0.2-1.5-0.5c-0.3-0.3-0.5-0.7-0.5-1.2
			c0-0.3,0.1-0.5,0.2-0.8c0.1-0.2,0.3-0.4,0.5-0.6c0.2-0.1,0.4-0.3,0.7-0.3c0.2-0.1,0.5-0.1,0.9-0.2c0.8-0.1,1.4-0.2,1.7-0.3
			c0-0.1,0-0.2,0-0.3c0-0.4-0.1-0.7-0.3-0.9C44,13.1,43.6,13,43.1,13c-0.5,0-0.8,0.1-1,0.2c-0.2,0.2-0.4,0.4-0.5,0.9l-1-0.1
			c0.1-0.4,0.2-0.8,0.4-1c0.2-0.3,0.5-0.4,0.9-0.6c0.4-0.1,0.8-0.2,1.3-0.2c0.5,0,0.9,0.1,1.2,0.2c0.3,0.1,0.5,0.3,0.7,0.4
			c0.2,0.2,0.3,0.4,0.3,0.7c0,0.2,0.1,0.5,0.1,0.9v1.3c0,0.9,0,1.5,0.1,1.7c0.1,0.2,0.1,0.5,0.3,0.7h-1C44.7,18,44.6,17.7,44.6,17.4
			z M44.5,15.3c-0.4,0.2-0.9,0.3-1.6,0.4c-0.4,0.1-0.7,0.1-0.9,0.2c-0.2,0.1-0.3,0.2-0.4,0.3c-0.1,0.1-0.1,0.3-0.1,0.5
			c0,0.3,0.1,0.5,0.3,0.6c0.2,0.2,0.5,0.3,0.9,0.3c0.4,0,0.7-0.1,1-0.3c0.3-0.2,0.5-0.4,0.6-0.7c0.1-0.2,0.2-0.5,0.2-1L44.5,15.3
			L44.5,15.3z"/>
		<path class="st0" d="M49.2,17.3l0.1,0.9c-0.3,0.1-0.5,0.1-0.8,0.1c-0.4,0-0.6-0.1-0.8-0.2c-0.2-0.1-0.3-0.3-0.4-0.4
			c-0.1-0.2-0.1-0.6-0.1-1.2v-3.3h-0.7v-0.8h0.7V11l1-0.6v2h1v0.8h-1v3.4c0,0.3,0,0.5,0.1,0.5c0,0.1,0.1,0.2,0.2,0.2
			c0.1,0.1,0.2,0.1,0.3,0.1C48.9,17.3,49,17.3,49.2,17.3z"/>
		<path class="st0" d="M54.1,16.3l1,0.1c-0.2,0.6-0.5,1-0.9,1.4c-0.4,0.3-1,0.5-1.7,0.5c-0.9,0-1.5-0.3-2-0.8
			c-0.5-0.5-0.8-1.2-0.8-2.2c0-1,0.3-1.7,0.8-2.3c0.5-0.5,1.1-0.8,1.9-0.8c0.8,0,1.4,0.3,1.9,0.8c0.5,0.5,0.7,1.3,0.7,2.2
			c0,0.1,0,0.2,0,0.3h-4.3c0,0.6,0.2,1.1,0.5,1.5c0.3,0.3,0.7,0.5,1.2,0.5c0.4,0,0.7-0.1,0.9-0.3C53.8,17,53.9,16.7,54.1,16.3z
			 M50.9,14.7h3.2c-0.1-0.5-0.2-0.9-0.4-1.1c-0.3-0.4-0.7-0.6-1.2-0.6c-0.4,0-0.8,0.2-1.1,0.4C51.1,13.8,50.9,14.2,50.9,14.7z"/>
		<path class="st0" d="M56.2,18.6l1,0.1c0.1,0.3,0.2,0.5,0.3,0.6c0.2,0.2,0.6,0.3,1,0.3c0.4,0,0.8-0.1,1-0.3
			c0.3-0.2,0.4-0.4,0.5-0.8c0.1-0.2,0.1-0.6,0.1-1.2c-0.4,0.5-1,0.8-1.6,0.8c-0.8,0-1.4-0.3-1.8-0.9C56.2,16.7,56,16,56,15.2
			c0-0.5,0.1-1.1,0.3-1.5c0.2-0.5,0.5-0.8,0.9-1.1c0.4-0.3,0.8-0.4,1.4-0.4c0.7,0,1.2,0.3,1.7,0.8v-0.7h0.9v5c0,0.9-0.1,1.5-0.3,1.9
			c-0.2,0.4-0.5,0.7-0.9,0.9c-0.4,0.2-0.9,0.3-1.5,0.3c-0.7,0-1.2-0.2-1.7-0.5C56.4,19.7,56.2,19.3,56.2,18.6z M57,15.2
			c0,0.8,0.2,1.3,0.4,1.7c0.3,0.3,0.7,0.5,1.1,0.5c0.4,0,0.8-0.2,1.1-0.5c0.3-0.3,0.5-0.9,0.5-1.6c0-0.7-0.2-1.2-0.5-1.6
			C59.4,13.2,59,13,58.6,13c-0.4,0-0.8,0.2-1.1,0.5C57.1,13.9,57,14.5,57,15.2z"/>
		<path class="st0" d="M62.6,11.3v-1.1h1v1.1C63.6,11.3,62.6,11.3,62.6,11.3z M62.6,18.2v-5.8h1v5.8H62.6z"/>
		<path class="st0" d="M68.8,16l1,0.1c-0.1,0.7-0.4,1.2-0.8,1.6s-1,0.6-1.6,0.6c-0.8,0-1.4-0.3-1.9-0.8c-0.5-0.5-0.7-1.3-0.7-2.2
			c0-0.6,0.1-1.2,0.3-1.6c0.2-0.5,0.5-0.8,0.9-1.1c0.4-0.2,0.9-0.4,1.4-0.4c0.6,0,1.1,0.2,1.5,0.5c0.4,0.3,0.6,0.8,0.8,1.4l-1,0.2
			c-0.1-0.4-0.3-0.7-0.5-0.9c-0.2-0.2-0.5-0.3-0.8-0.3c-0.5,0-0.9,0.2-1.2,0.5c-0.3,0.4-0.5,0.9-0.5,1.7c0,0.8,0.2,1.4,0.4,1.7
			c0.3,0.4,0.7,0.5,1.2,0.5c0.4,0,0.7-0.1,1-0.4C68.6,16.9,68.7,16.5,68.8,16z"/>
	</g>
</g>
<g>
	<g>
		<path class="st0" d="M1.2,18.3v-8h1.1v8L1.2,18.3L1.2,18.3z"/>
		<path class="st0" d="M4,18.3v-5.8h0.9v0.8c0.4-0.6,1-1,1.8-1c0.3,0,0.7,0.1,1,0.2C8,12.7,8.3,12.8,8.4,13c0.2,0.2,0.3,0.4,0.3,0.7
			c0,0.2,0.1,0.5,0.1,1v3.6h-1v-3.5c0-0.4,0-0.7-0.1-0.9c-0.1-0.2-0.2-0.4-0.4-0.5c-0.2-0.1-0.4-0.2-0.7-0.2c-0.4,0-0.8,0.1-1.1,0.4
			C5.2,13.9,5,14.4,5,15.1v3.2H4z"/>
		<path class="st0" d="M10.5,18.3v-5H9.6v-0.8h0.9v-0.6c0-0.4,0-0.7,0.1-0.9c0.1-0.3,0.3-0.5,0.5-0.6c0.2-0.2,0.6-0.2,1-0.2
			c0.3,0,0.6,0,0.9,0.1l-0.2,0.9c-0.2,0-0.4-0.1-0.6-0.1c-0.3,0-0.5,0.1-0.6,0.2c-0.1,0.1-0.2,0.4-0.2,0.7v0.5h1.1v0.8h-1.1v5
			C11.4,18.3,10.5,18.3,10.5,18.3z"/>
	</g>
</g>
<path class="st0" d="M16,16.4c-0.6-0.8-1-1.7-1-2.8c0-1.1,0.4-2.2,1.2-3L15.8,10c-1.3,1-2.2,2.6-2.2,4.4c0,1.2,0.4,2.3,1,3.2
	L16,16.4z"/>
<path class="st0" d="M16.2,16.6l-1.3,1.2c1,1.3,2.6,2.1,4.4,2.2V18C18.1,18,17,17.4,16.2,16.6z"/>
<path class="st0" d="M25.2,10.2C25.2,10.2,25.1,10.1,25.2,10.2l-3-1c-0.1-0.1-0.2,0-0.2,0.1l0.4,3.2c0,0.1,0.1,0.1,0.1,0.1l1-0.9
	c0.3,0.6,0.5,1.2,0.5,1.9c0,2.3-1.9,4.2-4.2,4.3V20c3-0.1,5.5-2.6,5.5-5.6c0-1.2-0.4-2.4-1.1-3.3L25.2,10.2z"/>
<path class="st0" d="M16.8,11.1c0.3-0.3,0.7-0.6,1.1-0.8l-1.5-5.5c-0.1-0.2-0.3-0.3-0.4-0.3l-1,0.3c-0.2,0.1-0.3,0.3-0.2,0.5"/>
<path class="st0" d="M19.6,9.9l-0.5-4.2c0-0.1-0.1-0.2-0.3-0.2l-1,0.2c-0.1,0-0.2,0.1-0.2,0.3l0.8,4.1c0.3-0.1,0.6-0.1,0.9-0.1
	C19.5,9.9,19.6,9.9,19.6,9.9z"/>
<path class="st0" d="M21,6.3h-0.6c-0.2,0-0.3,0.1-0.3,0.3l0.1,3.4c0.3,0.1,0.6,0.2,0.9,0.3l0.2-3.7C21.3,6.5,21.1,6.3,21,6.3z"/>
<g>
	<g>
		<path class="st0" d="M1.2,24.9v-2.3h0.3v2.3H1.2z"/>
		<path class="st0" d="M2,24.9v-1.7h0.3v0.2c0.1-0.2,0.3-0.3,0.5-0.3c0.1,0,0.2,0,0.3,0.1c0.1,0,0.2,0.1,0.2,0.1
			c0.1,0.1,0.1,0.1,0.1,0.2c0,0.1,0,0.2,0,0.3v1H3.1v-1c0-0.1,0-0.2,0-0.3C3,23.6,3,23.5,3,23.5c-0.1,0-0.1-0.1-0.2-0.1
			c-0.1,0-0.2,0-0.3,0.1c-0.1,0.1-0.1,0.2-0.1,0.4v0.9L2,24.9L2,24.9z"/>
		<path class="st0" d="M3.8,24.9v-1.4H3.6v-0.2h0.3v-0.2c0-0.1,0-0.2,0-0.3s0.1-0.1,0.2-0.2c0.1-0.1,0.2-0.1,0.3-0.1
			c0.1,0,0.2,0,0.3,0l-0.1,0.3c-0.1,0-0.1,0-0.2,0c-0.1,0-0.2,0-0.2,0.1c0,0-0.1,0.1-0.1,0.2v0.2h0.3v0.2H4.1v1.4L3.8,24.9L3.8,24.9
			z"/>
		<path class="st0" d="M4.5,24.1c0-0.3,0.1-0.5,0.3-0.7c0.1-0.1,0.3-0.2,0.5-0.2c0.2,0,0.4,0.1,0.6,0.2c0.2,0.2,0.2,0.3,0.2,0.6
			c0,0.2,0,0.4-0.1,0.5c-0.1,0.1-0.2,0.2-0.3,0.3C5.6,24.9,5.4,25,5.3,25c-0.2,0-0.4-0.1-0.6-0.2C4.6,24.6,4.5,24.4,4.5,24.1z
			 M4.8,24.1c0,0.2,0.1,0.4,0.1,0.5c0.1,0.1,0.2,0.2,0.3,0.2s0.3-0.1,0.3-0.2c0.1-0.1,0.1-0.3,0.1-0.5c0-0.2-0.1-0.4-0.1-0.5
			c-0.1-0.1-0.2-0.2-0.3-0.2S5,23.5,4.9,23.6C4.8,23.7,4.8,23.9,4.8,24.1z"/>
		<path class="st0" d="M6.4,24.9v-1.7h0.3v0.3c0.1-0.1,0.1-0.2,0.2-0.2s0.1-0.1,0.2-0.1c0.1,0,0.2,0,0.3,0.1l-0.1,0.3
			C7.1,23.5,7,23.5,7,23.5c-0.1,0-0.1,0-0.2,0.1c-0.1,0-0.1,0.1-0.1,0.2c0,0.1-0.1,0.2-0.1,0.3v0.9C6.6,24.9,6.4,24.9,6.4,24.9z"/>
		<path class="st0" d="M7.4,24.9v-1.7h0.3v0.2c0.1-0.1,0.1-0.2,0.2-0.2c0.1-0.1,0.2-0.1,0.3-0.1c0.1,0,0.2,0,0.3,0.1
			s0.1,0.1,0.2,0.2c0.1-0.2,0.3-0.3,0.5-0.3c0.2,0,0.3,0.1,0.4,0.1c0.1,0.1,0.1,0.2,0.1,0.4v1.1H9.4v-1c0-0.1,0-0.2,0-0.2
			c0-0.1-0.1-0.1-0.1-0.1c-0.1,0-0.1-0.1-0.2-0.1c-0.1,0-0.2,0-0.3,0.1c-0.1,0.1-0.1,0.2-0.1,0.4v1H8.4v-1.1c0-0.1,0-0.2-0.1-0.3
			c-0.1-0.1-0.1-0.1-0.2-0.1c-0.1,0-0.2,0-0.2,0.1c-0.1,0.1-0.1,0.1-0.2,0.2c0,0.1-0.1,0.2-0.1,0.3v0.9L7.4,24.9L7.4,24.9z"/>
		<path class="st0" d="M11.1,24.7c-0.1,0.1-0.2,0.2-0.3,0.2S10.6,25,10.5,25c-0.2,0-0.3-0.1-0.4-0.1c-0.1-0.1-0.2-0.2-0.2-0.3
			c0-0.1,0-0.2,0.1-0.2c0-0.1,0.1-0.1,0.2-0.2c0.1-0.1,0.1-0.1,0.2-0.1c0.1,0,0.1,0,0.3-0.1c0.2,0,0.4-0.1,0.5-0.1c0,0,0-0.1,0-0.1
			c0-0.1,0-0.2-0.1-0.2c-0.1-0.1-0.2-0.1-0.3-0.1c-0.1,0-0.2,0-0.3,0.1c-0.1,0.1-0.1,0.1-0.1,0.2l-0.3,0c0-0.1,0.1-0.2,0.1-0.3
			s0.1-0.1,0.3-0.2c0.1-0.1,0.2-0.1,0.4-0.1c0.1,0,0.3,0,0.3,0.1c0.1,0,0.2,0.1,0.2,0.1c0.1,0.1,0.1,0.1,0.1,0.2c0,0.1,0,0.1,0,0.3
			v0.4c0,0.3,0,0.4,0,0.5c0,0.1,0,0.1,0.1,0.2h-0.3C11.1,24.9,11.1,24.8,11.1,24.7z M11.1,24.1c-0.1,0.1-0.3,0.1-0.5,0.1
			c-0.1,0-0.2,0-0.2,0.1c-0.1,0-0.1,0.1-0.1,0.1c0,0.1-0.1,0.1-0.1,0.1c0,0.1,0,0.1,0.1,0.2c0.1,0.1,0.1,0.1,0.3,0.1
			c0.1,0,0.2,0,0.3-0.1c0.1-0.1,0.2-0.1,0.2-0.2c0-0.1,0.1-0.2,0.1-0.3C11.1,24.2,11.1,24.1,11.1,24.1z"/>
		<path class="st0" d="M12.4,24.7l0.1,0.3c-0.1,0-0.2,0-0.2,0c-0.1,0-0.2,0-0.2-0.1c-0.1,0-0.1-0.1-0.1-0.1c0-0.1,0-0.2,0-0.3v-1
			h-0.2v-0.2h0.2v-0.4l0.3-0.2v0.6h0.3v0.2h-0.3v1c0,0.1,0,0.1,0,0.2c0,0,0,0.1,0.1,0.1C12.2,24.7,12.3,24.7,12.4,24.7
			C12.3,24.7,12.3,24.7,12.4,24.7z"/>
		<path class="st0" d="M12.6,23v-0.3h0.3V23H12.6z M12.6,24.9v-1.7h0.3v1.7H12.6z"/>
		<path class="st0" d="M13.2,24.1c0-0.3,0.1-0.5,0.3-0.7c0.1-0.1,0.3-0.2,0.5-0.2c0.2,0,0.4,0.1,0.6,0.2c0.2,0.2,0.2,0.4,0.2,0.6
			c0,0.2,0,0.4-0.1,0.5c-0.1,0.1-0.2,0.2-0.3,0.3C14.3,25,14.1,25,14,25c-0.2,0-0.4-0.1-0.6-0.2C13.3,24.6,13.2,24.4,13.2,24.1z
			 M13.5,24.1c0,0.2,0.1,0.4,0.1,0.5c0.1,0.1,0.2,0.2,0.3,0.2s0.3-0.1,0.3-0.2c0.1-0.1,0.1-0.3,0.1-0.5c0-0.2-0.1-0.4-0.1-0.5
			c-0.1-0.1-0.2-0.2-0.3-0.2s-0.3,0.1-0.3,0.2C13.5,23.7,13.5,23.9,13.5,24.1z"/>
		<path class="st0" d="M15.1,24.9v-1.7h0.3v0.2c0.1-0.2,0.3-0.3,0.5-0.3c0.1,0,0.2,0,0.3,0.1c0.1,0,0.2,0.1,0.2,0.1
			c0.1,0.1,0.1,0.1,0.1,0.2c0,0.1,0,0.2,0,0.3v1h-0.3v-1c0-0.1,0-0.2,0-0.3c0-0.1-0.1-0.1-0.1-0.1c-0.1,0-0.1-0.1-0.2-0.1
			c-0.1,0-0.2,0-0.3,0.1c-0.1,0.1-0.1,0.2-0.1,0.4v0.9L15.1,24.9L15.1,24.9z"/>
		<path class="st0" d="M18.2,24.9v-2h-0.8v-0.3h1.8v0.3h-0.8v2H18.2z"/>
		<path class="st0" d="M20.3,24.4l0.3,0c-0.1,0.2-0.1,0.3-0.3,0.4c-0.1,0.1-0.3,0.1-0.5,0.1c-0.2,0-0.4-0.1-0.6-0.2
			c-0.1-0.2-0.2-0.4-0.2-0.6c0-0.3,0.1-0.5,0.2-0.6c0.2-0.2,0.3-0.2,0.6-0.2c0.2,0,0.4,0.1,0.5,0.2c0.1,0.2,0.2,0.4,0.2,0.6
			c0,0,0,0.1,0,0.1h-1.2c0,0.2,0.1,0.3,0.2,0.4c0.1,0.1,0.2,0.2,0.3,0.2c0.1,0,0.2,0,0.3-0.1C20.2,24.6,20.3,24.5,20.3,24.4z
			 M19.4,23.9h0.9c0-0.1-0.1-0.2-0.1-0.3c-0.1-0.1-0.2-0.2-0.3-0.2c-0.1,0-0.2,0.1-0.3,0.1C19.4,23.7,19.4,23.8,19.4,23.9z"/>
		<path class="st0" d="M22,24.3l0.3,0c0,0.2-0.1,0.3-0.2,0.4c-0.1,0.1-0.3,0.2-0.5,0.2c-0.2,0-0.4-0.1-0.5-0.2
			c-0.1-0.2-0.2-0.4-0.2-0.6c0-0.2,0-0.3,0.1-0.5c0.1-0.1,0.2-0.2,0.3-0.3c0.1-0.1,0.3-0.1,0.4-0.1c0.2,0,0.3,0.1,0.4,0.1
			s0.2,0.2,0.2,0.4l-0.3,0.1c0-0.1-0.1-0.2-0.1-0.3c-0.1-0.1-0.2-0.1-0.2-0.1c-0.1,0-0.3,0.1-0.3,0.2c-0.1,0.1-0.1,0.3-0.1,0.5
			s0.1,0.4,0.1,0.5c0.1,0.1,0.2,0.2,0.3,0.2c0.1,0,0.2,0,0.3-0.1C21.9,24.6,22,24.5,22,24.3z"/>
		<path class="st0" d="M22.5,24.9v-2.3h0.3v0.8c0.1-0.2,0.3-0.2,0.5-0.2c0.1,0,0.2,0,0.3,0.1c0.1,0.1,0.2,0.1,0.2,0.2
			c0.1,0.1,0.1,0.2,0.1,0.4v1h-0.3v-1c0-0.1,0-0.2-0.1-0.3c-0.1-0.1-0.2-0.1-0.3-0.1c-0.1,0-0.2,0-0.2,0.1c-0.1,0-0.1,0.1-0.2,0.2
			s-0.1,0.2-0.1,0.3v0.9C22.7,24.9,22.5,24.9,22.5,24.9z"/>
		<path class="st0" d="M24.2,24.9v-1.7h0.3v0.2c0.1-0.2,0.3-0.3,0.5-0.3c0.1,0,0.2,0,0.3,0.1c0.1,0,0.2,0.1,0.2,0.1
			c0.1,0.1,0.1,0.1,0.1,0.2c0,0.1,0,0.2,0,0.3v1h-0.3v-1c0-0.1,0-0.2,0-0.3c0-0.1-0.1-0.1-0.1-0.1c-0.1,0-0.1-0.1-0.2-0.1
			c-0.1,0-0.2,0-0.3,0.1c-0.1,0.1-0.1,0.3-0.1,0.5v0.9H24.2z"/>
		<path class="st0" d="M25.9,24.1c0-0.3,0.1-0.5,0.3-0.7c0.1-0.1,0.3-0.2,0.5-0.2c0.2,0,0.4,0.1,0.6,0.2c0.2,0.2,0.2,0.4,0.2,0.6
			c0,0.2,0,0.4-0.1,0.5c-0.1,0.1-0.2,0.2-0.3,0.3C26.9,25,26.8,25,26.6,25c-0.2,0-0.4-0.1-0.6-0.2C25.9,24.6,25.9,24.4,25.9,24.1z
			 M26.1,24.1c0,0.2,0.1,0.4,0.1,0.5c0.1,0.1,0.2,0.2,0.3,0.2s0.3-0.1,0.3-0.2c0.1-0.1,0.1-0.3,0.1-0.5c0-0.2-0.1-0.4-0.1-0.5
			s-0.2-0.2-0.3-0.2s-0.3,0.1-0.3,0.2C26.2,23.7,26.1,23.9,26.1,24.1z"/>
		<path class="st0" d="M27.7,24.9v-2.3H28v2.3H27.7z"/>
		<path class="st0" d="M28.3,24.1c0-0.3,0.1-0.5,0.3-0.7c0.1-0.1,0.3-0.2,0.5-0.2c0.2,0,0.4,0.1,0.6,0.2c0.2,0.2,0.2,0.4,0.2,0.6
			c0,0.2,0,0.4-0.1,0.5c-0.1,0.1-0.2,0.2-0.3,0.3C29.3,25,29.2,25,29.1,25c-0.2,0-0.4-0.1-0.6-0.2C28.3,24.6,28.3,24.4,28.3,24.1z
			 M28.6,24.1c0,0.2,0.1,0.4,0.1,0.5c0.1,0.1,0.2,0.2,0.3,0.2s0.3-0.1,0.3-0.2c0.1-0.1,0.1-0.3,0.1-0.5c0-0.2-0.1-0.4-0.1-0.5
			c-0.1-0.1-0.2-0.2-0.3-0.2s-0.3,0.1-0.3,0.2C28.6,23.7,28.6,23.9,28.6,24.1z"/>
		<path class="st0" d="M30.1,25.1l0.3,0.1c0,0.1,0.1,0.2,0.1,0.2c0.1,0.1,0.2,0.1,0.3,0.1s0.2,0,0.3-0.1s0.1-0.1,0.2-0.2
			c0-0.1,0-0.2,0-0.4c-0.1,0.2-0.3,0.2-0.5,0.2c-0.2,0-0.4-0.1-0.5-0.2c-0.1-0.2-0.2-0.4-0.2-0.6c0-0.2,0-0.3,0.1-0.4
			c0.1-0.1,0.1-0.2,0.3-0.3c0.1-0.1,0.2-0.1,0.4-0.1c0.2,0,0.4,0.1,0.5,0.2v-0.2h0.3v1.4c0,0.3,0,0.4-0.1,0.5
			c-0.1,0.1-0.1,0.2-0.3,0.3c-0.1,0.1-0.3,0.1-0.4,0.1c-0.2,0-0.4-0.1-0.5-0.1C30.1,25.4,30.1,25.2,30.1,25.1z M30.3,24.1
			c0,0.2,0.1,0.4,0.1,0.5s0.2,0.2,0.3,0.2c0.1,0,0.2-0.1,0.3-0.2c0.1-0.1,0.1-0.3,0.1-0.5s-0.1-0.4-0.1-0.5s-0.2-0.2-0.3-0.2
			s-0.2,0.1-0.3,0.2C30.4,23.7,30.3,23.9,30.3,24.1z"/>
		<path class="st0" d="M31.9,25.6l0-0.3c0.1,0,0.1,0,0.2,0c0.1,0,0.1,0,0.2,0c0,0,0.1-0.1,0.1-0.1c0,0,0.1-0.1,0.1-0.2
			c0,0,0,0,0-0.1l-0.6-1.7h0.3l0.3,1c0.1,0.1,0.1,0.3,0.1,0.4c0-0.1,0.1-0.3,0.1-0.4l0.4-1h0.3L32.7,25c-0.1,0.2-0.1,0.3-0.2,0.4
			c-0.1,0.1-0.1,0.2-0.2,0.2c-0.1,0.1-0.1,0.1-0.2,0.1C32,25.6,31.9,25.6,31.9,25.6z"/>
		<path class="st0" d="M36,24.1l0.3,0.1c-0.1,0.3-0.2,0.4-0.3,0.6S35.6,25,35.4,25s-0.4-0.1-0.6-0.2c-0.2-0.1-0.3-0.2-0.4-0.4
			c-0.1-0.2-0.1-0.4-0.1-0.6s0.1-0.4,0.1-0.6c0.1-0.2,0.2-0.3,0.4-0.4c0.2-0.1,0.4-0.1,0.5-0.1c0.2,0,0.4,0.1,0.6,0.2
			c0.2,0.1,0.3,0.3,0.3,0.5L36,23.3c-0.1-0.2-0.1-0.3-0.2-0.4c-0.1-0.1-0.2-0.1-0.4-0.1c-0.2,0-0.3,0.1-0.4,0.1
			c-0.1,0.1-0.2,0.2-0.3,0.3c-0.1,0.1-0.1,0.3-0.1,0.4c0,0.2,0,0.4,0.1,0.5c0.1,0.2,0.2,0.3,0.3,0.3c0.1,0.1,0.3,0.1,0.4,0.1
			c0.2,0,0.3-0.1,0.4-0.2C35.9,24.5,35.9,24.3,36,24.1z"/>
		<path class="st0" d="M36.5,24.1c0-0.3,0.1-0.5,0.3-0.7c0.1-0.1,0.3-0.2,0.5-0.2c0.2,0,0.4,0.1,0.6,0.2c0.2,0.2,0.2,0.4,0.2,0.6
			c0,0.2,0,0.4-0.1,0.5c-0.1,0.1-0.2,0.2-0.3,0.3C37.5,25,37.4,25,37.3,25c-0.2,0-0.4-0.1-0.6-0.2C36.6,24.6,36.5,24.4,36.5,24.1z
			 M36.8,24.1c0,0.2,0.1,0.4,0.1,0.5c0.1,0.1,0.2,0.2,0.3,0.2s0.3-0.1,0.3-0.2c0.1-0.1,0.1-0.3,0.1-0.5c0-0.2-0.1-0.4-0.1-0.5
			c-0.1-0.1-0.2-0.2-0.3-0.2s-0.3,0.1-0.3,0.2C36.8,23.7,36.8,23.9,36.8,24.1z"/>
		<path class="st0" d="M38.3,24.9v-1.7h0.3v0.2c0.1-0.2,0.3-0.3,0.5-0.3c0.1,0,0.2,0,0.3,0.1c0.1,0,0.2,0.1,0.2,0.1
			c0.1,0.1,0.1,0.1,0.1,0.2c0,0.1,0,0.2,0,0.3v1h-0.3v-1c0-0.1,0-0.2,0-0.3c0-0.1-0.1-0.1-0.1-0.1s-0.1-0.1-0.2-0.1
			c-0.1,0-0.2,0-0.3,0.1c-0.1,0.1-0.1,0.2-0.1,0.4v0.9L38.3,24.9L38.3,24.9z"/>
		<path class="st0" d="M40,24.4l0.3-0.1c0,0.1,0.1,0.2,0.1,0.3s0.2,0.1,0.3,0.1s0.2,0,0.3-0.1c0.1-0.1,0.1-0.1,0.1-0.2
			c0-0.1,0-0.1-0.1-0.2c0,0-0.1-0.1-0.3-0.1c-0.2-0.1-0.3-0.1-0.4-0.1c-0.1,0-0.1-0.1-0.2-0.2c-0.1-0.1-0.1-0.1-0.1-0.2
			c0-0.1,0-0.1,0.1-0.2c0-0.1,0.1-0.1,0.1-0.2c0.1,0,0.1-0.1,0.2-0.1c0.1,0,0.2,0,0.2,0c0.1,0,0.2,0,0.3,0.1c0.1,0,0.2,0.1,0.2,0.2
			c0.1,0.1,0.1,0.2,0.1,0.3l-0.3,0c0-0.1-0.1-0.2-0.1-0.2s-0.2-0.1-0.3-0.1c-0.1,0-0.2,0-0.3,0.1c-0.1,0-0.1,0.1-0.1,0.2
			c0,0,0,0.1,0,0.1s0.1,0.1,0.1,0.1c0,0,0.1,0,0.3,0.1c0.2,0.1,0.3,0.1,0.4,0.1c0.1,0,0.1,0.1,0.2,0.2c0.1,0.1,0.1,0.2,0.1,0.2
			c0,0.1,0,0.2-0.1,0.3c-0.1,0.1-0.1,0.2-0.2,0.2c-0.1,0.1-0.2,0.1-0.3,0.1c-0.2,0-0.4-0.1-0.5-0.1C40.1,24.7,40,24.6,40,24.4z"/>
		<path class="st0" d="M42.7,24.9v-0.2c-0.1,0.2-0.3,0.3-0.5,0.3c-0.1,0-0.2,0-0.3-0.1c-0.1,0-0.2-0.1-0.2-0.1
			c-0.1-0.1-0.1-0.1-0.1-0.2c0-0.1,0-0.1,0-0.3v-1h0.3v0.9c0,0.2,0,0.2,0,0.3c0,0.1,0.1,0.1,0.1,0.2c0.1,0.1,0.1,0.1,0.2,0.1
			s0.2,0,0.2-0.1c0.1-0.1,0.1-0.1,0.2-0.2c0-0.1,0.1-0.2,0.1-0.3v-0.9H43V25L42.7,24.9L42.7,24.9z"/>
		<path class="st0" d="M43.4,24.9v-2.3h0.3v2.3H43.4z"/>
		<path class="st0" d="M44.7,24.7l0.1,0.3c-0.1,0-0.2,0-0.2,0c-0.1,0-0.2,0-0.2-0.1c-0.1,0-0.1-0.1-0.1-0.1c0-0.1,0-0.2,0-0.3v-1
			h-0.2v-0.2h0.2v-0.4l0.3-0.2v0.6h0.3v0.2h-0.3v1c0,0.1,0,0.1,0,0.2c0,0,0,0.1,0.1,0.1C44.5,24.7,44.6,24.7,44.7,24.7
			C44.6,24.7,44.6,24.7,44.7,24.7z"/>
		<path class="st0" d="M46,24.7c-0.1,0.1-0.2,0.2-0.3,0.2c-0.1,0-0.2,0.1-0.3,0.1c-0.2,0-0.3-0.1-0.4-0.1c-0.1-0.1-0.2-0.2-0.2-0.3
			c0-0.1,0-0.2,0.1-0.2c0-0.1,0.1-0.1,0.2-0.2c0.1-0.1,0.1-0.1,0.2-0.1c0.1,0,0.1,0,0.3-0.1c0.2,0,0.4-0.1,0.5-0.1c0,0,0-0.1,0-0.1
			c0-0.1,0-0.2-0.1-0.2c-0.1-0.1-0.2-0.1-0.3-0.1s-0.2,0-0.3,0.1c-0.1,0.1-0.1,0.1-0.1,0.2l-0.3,0c0-0.1,0.1-0.2,0.1-0.3
			c0.1-0.1,0.1-0.1,0.3-0.2c0.1-0.1,0.2-0.1,0.4-0.1s0.3,0,0.3,0.1s0.2,0.1,0.2,0.1s0.1,0.1,0.1,0.2c0,0.1,0,0.1,0,0.3v0.4
			c0,0.3,0,0.4,0,0.5c0,0.1,0,0.1,0.1,0.2h-0.3C46,24.9,46,24.8,46,24.7z M46,24.1c-0.1,0.1-0.3,0.1-0.5,0.1c-0.1,0-0.2,0-0.2,0.1
			c-0.1,0-0.1,0.1-0.1,0.1c0,0.1-0.1,0.1-0.1,0.1c0,0.1,0,0.1,0.1,0.2c0.1,0.1,0.1,0.1,0.3,0.1c0.1,0,0.2,0,0.3-0.1
			c0.1-0.1,0.2-0.1,0.2-0.2c0-0.1,0.1-0.2,0.1-0.3L46,24.1L46,24.1z"/>
		<path class="st0" d="M47.3,24.7l0.1,0.3c-0.1,0-0.2,0-0.2,0c-0.1,0-0.2,0-0.2-0.1c-0.1,0-0.1-0.1-0.1-0.1c0-0.1,0-0.2,0-0.3v-1
			h-0.2v-0.2h0.2v-0.4l0.3-0.2v0.6h0.3v0.2H47v1c0,0.1,0,0.1,0,0.2c0,0,0,0.1,0.1,0.1C47.1,24.7,47.2,24.7,47.3,24.7
			C47.2,24.7,47.2,24.7,47.3,24.7z"/>
		<path class="st0" d="M47.5,23v-0.3h0.3V23H47.5z M47.5,24.9v-1.7h0.3v1.7H47.5z"/>
		<path class="st0" d="M48.1,24.1c0-0.3,0.1-0.5,0.3-0.7c0.1-0.1,0.3-0.2,0.5-0.2c0.2,0,0.4,0.1,0.6,0.2c0.2,0.2,0.2,0.4,0.2,0.6
			c0,0.2,0,0.4-0.1,0.5c-0.1,0.1-0.2,0.2-0.3,0.3C49.1,25,49,25,48.9,25c-0.2,0-0.4-0.1-0.6-0.2C48.2,24.6,48.1,24.4,48.1,24.1z
			 M48.4,24.1c0,0.2,0.1,0.4,0.1,0.5c0.1,0.1,0.2,0.2,0.3,0.2s0.3-0.1,0.3-0.2c0.1-0.1,0.1-0.3,0.1-0.5c0-0.2-0.1-0.4-0.1-0.5
			c-0.1-0.1-0.2-0.2-0.3-0.2s-0.3,0.1-0.3,0.2C48.4,23.7,48.4,23.9,48.4,24.1z"/>
		<path class="st0" d="M50,24.9v-1.7h0.3v0.2c0.1-0.2,0.3-0.3,0.5-0.3c0.1,0,0.2,0,0.3,0.1c0.1,0,0.2,0.1,0.2,0.1
			c0.1,0.1,0.1,0.1,0.1,0.2c0,0.1,0,0.2,0,0.3v1H51v-1c0-0.1,0-0.2,0-0.3c0-0.1-0.1-0.1-0.1-0.1s-0.1-0.1-0.2-0.1
			c-0.1,0-0.2,0-0.3,0.1c-0.1,0.1-0.1,0.2-0.1,0.4v0.9L50,24.9L50,24.9z"/>
		<path class="st0" d="M51.6,24.4l0.3-0.1c0,0.1,0.1,0.2,0.1,0.3s0.2,0.1,0.3,0.1s0.2,0,0.3-0.1c0.1-0.1,0.1-0.1,0.1-0.2
			c0-0.1,0-0.1-0.1-0.2c0,0-0.1-0.1-0.3-0.1c-0.2-0.1-0.3-0.1-0.4-0.1s-0.1-0.1-0.2-0.2c-0.1-0.1-0.1-0.1-0.1-0.2
			c0-0.1,0-0.1,0.1-0.2c0-0.1,0.1-0.1,0.1-0.2c0.1,0,0.1-0.1,0.2-0.1c0.1,0,0.2,0,0.2,0c0.1,0,0.2,0,0.3,0.1s0.2,0.1,0.2,0.2
			c0.1,0.1,0.1,0.2,0.1,0.3l-0.3,0c0-0.1-0.1-0.2-0.1-0.2c-0.1-0.1-0.2-0.1-0.3-0.1c-0.1,0-0.2,0-0.3,0.1c-0.1,0-0.1,0.1-0.1,0.2
			c0,0,0,0.1,0,0.1c0,0,0.1,0.1,0.1,0.1c0,0,0.1,0,0.3,0.1c0.2,0.1,0.3,0.1,0.4,0.1c0.1,0,0.1,0.1,0.2,0.2c0.1,0.1,0.1,0.2,0.1,0.2
			c0,0.1,0,0.2-0.1,0.3c-0.1,0.1-0.1,0.2-0.2,0.2c-0.1,0.1-0.2,0.1-0.3,0.1c-0.2,0-0.4-0.1-0.5-0.1C51.8,24.7,51.6,24.6,51.6,24.4z"
			/>
		<path class="st0" d="M55.4,24.6c-0.1,0.1-0.2,0.2-0.3,0.2C55,24.9,54.9,25,54.8,25c-0.2,0-0.4-0.1-0.5-0.2
			c-0.1-0.1-0.2-0.3-0.2-0.4c0-0.1,0.1-0.3,0.1-0.4c0.1-0.1,0.2-0.2,0.4-0.3c-0.1-0.1-0.2-0.2-0.2-0.3c0-0.1-0.1-0.2-0.1-0.2
			c0-0.1,0.1-0.3,0.2-0.4c0.1-0.1,0.2-0.2,0.4-0.2c0.2,0,0.3,0.1,0.4,0.2c0.1,0.1,0.2,0.2,0.2,0.3c0,0.2-0.2,0.4-0.4,0.5l0.4,0.5
			c0.1-0.1,0.1-0.2,0.1-0.3l0.3,0.1c-0.1,0.2-0.1,0.4-0.2,0.5c0.1,0.1,0.2,0.3,0.4,0.4L55.8,25C55.7,24.9,55.6,24.8,55.4,24.6z
			 M55.3,24.4l-0.5-0.6c-0.2,0.1-0.3,0.2-0.3,0.3c-0.1,0.1-0.1,0.2-0.1,0.2c0,0.1,0,0.2,0.1,0.3c0.1,0.1,0.2,0.2,0.3,0.2
			c0.1,0,0.2,0,0.3-0.1C55.1,24.6,55.2,24.5,55.3,24.4z M54.9,23.5c0.1-0.1,0.2-0.1,0.2-0.2c0-0.1,0.1-0.1,0.1-0.2s0-0.1-0.1-0.2
			c-0.1-0.1-0.1-0.1-0.2-0.1s-0.1,0-0.2,0.1c-0.1,0.1-0.1,0.1-0.1,0.2c0,0,0,0.1,0,0.1c0,0.1,0.1,0.1,0.1,0.1L54.9,23.5z"/>
		<path class="st0" d="M57,24.2l0.3,0c0,0.1,0.1,0.2,0.1,0.3c0.1,0.1,0.1,0.1,0.2,0.2c0.1,0.1,0.2,0.1,0.4,0.1c0.1,0,0.2,0,0.3-0.1
			c0.1,0,0.2-0.1,0.2-0.1c0.1-0.1,0.1-0.1,0.1-0.2s0-0.1-0.1-0.2c-0.1-0.1-0.1-0.1-0.2-0.1c-0.1,0-0.2-0.1-0.4-0.1
			c-0.2-0.1-0.4-0.1-0.4-0.1c-0.1-0.1-0.2-0.1-0.2-0.2c-0.1-0.1-0.1-0.2-0.1-0.3s0-0.2,0.1-0.3c0.1-0.1,0.2-0.2,0.3-0.2
			c0.1-0.1,0.3-0.1,0.4-0.1c0.2,0,0.3,0,0.4,0.1c0.1,0.1,0.2,0.1,0.3,0.2c0.1,0.1,0.1,0.2,0.1,0.4l-0.3,0c0-0.2-0.1-0.3-0.2-0.3
			c-0.1-0.1-0.2-0.1-0.4-0.1c-0.2,0-0.3,0-0.4,0.1c-0.1,0.1-0.1,0.2-0.1,0.2c0,0.1,0,0.2,0.1,0.2s0.2,0.1,0.5,0.2
			c0.2,0.1,0.4,0.1,0.5,0.2c0.1,0.1,0.2,0.1,0.3,0.2s0.1,0.2,0.1,0.3s0,0.2-0.1,0.3c-0.1,0.1-0.2,0.2-0.3,0.3C58.4,25,58.2,25,58,25
			c-0.2,0-0.4,0-0.5-0.1s-0.3-0.2-0.3-0.3C57.1,24.5,57,24.3,57,24.2z"/>
		<path class="st0" d="M59.1,24.1c0-0.3,0.1-0.5,0.3-0.7c0.1-0.1,0.3-0.2,0.5-0.2c0.2,0,0.4,0.1,0.6,0.2c0.2,0.2,0.2,0.4,0.2,0.6
			c0,0.2,0,0.4-0.1,0.5c-0.1,0.1-0.2,0.2-0.3,0.3C60.1,25,60,25,59.9,25c-0.2,0-0.4-0.1-0.6-0.2C59.2,24.6,59.1,24.4,59.1,24.1z
			 M59.4,24.1c0,0.2,0.1,0.4,0.1,0.5c0.1,0.1,0.2,0.2,0.3,0.2s0.3-0.1,0.3-0.2c0.1-0.1,0.1-0.3,0.1-0.5c0-0.2-0.1-0.4-0.1-0.5
			c-0.1-0.1-0.2-0.2-0.3-0.2s-0.3,0.1-0.3,0.2C59.4,23.7,59.4,23.9,59.4,24.1z"/>
		<path class="st0" d="M60.9,24.9v-2.3h0.3v2.3H60.9z"/>
		<path class="st0" d="M62.7,24.9v-0.2c-0.1,0.2-0.3,0.3-0.5,0.3c-0.1,0-0.2,0-0.3-0.1c-0.1,0-0.2-0.1-0.2-0.1
			c-0.1-0.1-0.1-0.1-0.1-0.2c0-0.1,0-0.1,0-0.3v-1h0.3v0.9c0,0.2,0,0.2,0,0.3c0,0.1,0.1,0.1,0.1,0.2c0.1,0.1,0.1,0.1,0.2,0.1
			s0.2,0,0.2-0.1c0.1-0.1,0.1-0.1,0.2-0.2c0-0.1,0.1-0.2,0.1-0.3v-0.9H63V25L62.7,24.9L62.7,24.9z"/>
		<path class="st0" d="M64,24.7l0.1,0.3c-0.1,0-0.2,0-0.2,0c-0.1,0-0.2,0-0.2-0.1c-0.1,0-0.1-0.1-0.1-0.1c0-0.1,0-0.2,0-0.3v-1h-0.2
			v-0.2h0.2v-0.4l0.3-0.2v0.6H64v0.2h-0.3v1c0,0.1,0,0.1,0,0.2c0,0,0,0.1,0.1,0.1C63.8,24.7,63.8,24.7,64,24.7
			C63.9,24.7,63.9,24.7,64,24.7z"/>
		<path class="st0" d="M64.2,23v-0.3h0.3V23H64.2z M64.2,24.9v-1.7h0.3v1.7H64.2z"/>
		<path class="st0" d="M64.8,24.1c0-0.3,0.1-0.5,0.3-0.7c0.1-0.1,0.3-0.2,0.5-0.2c0.2,0,0.4,0.1,0.6,0.2c0.2,0.2,0.2,0.4,0.2,0.6
			c0,0.2,0,0.4-0.1,0.5c-0.1,0.1-0.2,0.2-0.3,0.3C65.8,25,65.7,25,65.6,25c-0.2,0-0.4-0.1-0.6-0.2C64.9,24.6,64.8,24.4,64.8,24.1z
			 M65.1,24.1c0,0.2,0.1,0.4,0.1,0.5c0.1,0.1,0.2,0.2,0.3,0.2s0.3-0.1,0.3-0.2c0.1-0.1,0.1-0.3,0.1-0.5c0-0.2-0.1-0.4-0.1-0.5
			c-0.1-0.1-0.2-0.2-0.3-0.2s-0.3,0.1-0.3,0.2C65.1,23.7,65.1,23.9,65.1,24.1z"/>
		<path class="st0" d="M66.6,24.9v-1.7h0.3v0.2c0.1-0.2,0.3-0.3,0.5-0.3c0.1,0,0.2,0,0.3,0.1c0.1,0,0.2,0.1,0.2,0.1
			c0.1,0.1,0.1,0.1,0.1,0.2c0,0.1,0,0.2,0,0.3v1h-0.3v-1c0-0.1,0-0.2,0-0.3c0-0.1-0.1-0.1-0.1-0.1s-0.1-0.1-0.2-0.1
			c-0.1,0-0.2,0-0.3,0.1c-0.1,0.1-0.1,0.2-0.1,0.4v0.9L66.6,24.9L66.6,24.9z"/>
		<path class="st0" d="M68.3,24.4l0.3-0.1c0,0.1,0.1,0.2,0.1,0.3c0.1,0.1,0.2,0.1,0.3,0.1s0.2,0,0.3-0.1c0.1-0.1,0.1-0.1,0.1-0.2
			c0-0.1,0-0.1-0.1-0.2c0,0-0.1-0.1-0.3-0.1c-0.2-0.1-0.3-0.1-0.4-0.1s-0.1-0.1-0.2-0.2c-0.1-0.1-0.1-0.1-0.1-0.2
			c0-0.1,0-0.1,0.1-0.2c0-0.1,0.1-0.1,0.1-0.2c0.1,0,0.1-0.1,0.2-0.1c0.1,0,0.2,0,0.2,0c0.1,0,0.2,0,0.3,0.1c0.1,0,0.2,0.1,0.2,0.2
			c0.1,0.1,0.1,0.2,0.1,0.3l-0.3,0c0-0.1-0.1-0.2-0.1-0.2c-0.1-0.1-0.2-0.1-0.3-0.1c-0.1,0-0.2,0-0.3,0.1c-0.1,0-0.1,0.1-0.1,0.2
			c0,0,0,0.1,0,0.1c0,0,0.1,0.1,0.1,0.1c0,0,0.1,0,0.3,0.1c0.2,0.1,0.3,0.1,0.4,0.1c0.1,0,0.1,0.1,0.2,0.2c0.1,0.1,0.1,0.2,0.1,0.2
			c0,0.1,0,0.2-0.1,0.3c-0.1,0.1-0.1,0.2-0.2,0.2c-0.1,0.1-0.2,0.1-0.3,0.1c-0.2,0-0.4-0.1-0.5-0.1C68.4,24.7,68.3,24.6,68.3,24.4z"
			/>
	</g>
</g>
</svg>
